<?xml version="1.0" encoding="UTF-8" standalone="no"?>
<svg width="130px" height="65px" viewBox="0 0 130 65" version="1.1" xmlns="http://www.w3.org/2000/svg" xmlns:xlink="http://www.w3.org/1999/xlink">
    <!-- Generator: Sketch 3.6.1 (26313) - http://www.bohemiancoding.com/sketch -->
    <title>brand-myft</title>
    <desc>Created with Sketch.</desc>
    <defs></defs>
    <g id="Page-1" stroke="none" stroke-width="1" fill="none" fill-rule="evenodd">
        <g id="brand-myft" transform="translate(1.000000, 3.000000)" fill="#000000">
            <g id="Page-1">
                <g id="brand-myft">
                    <g id="Page-1">
                        <g id="Group-2" opacity="0.8" transform="translate(0.000000, 17.000000)">
                            <path d="M32.4,4.61 C32.59,4.913 32.702,5.2 32.702,5.775 C32.702,6.045 32.542,6.972 31.489,10.132 L28.584,18.415 C27.546,21.385 27.034,23.411 27.034,24.415 C27.034,25.725 27.402,26.699 28.184,27.481 C28.934,28.248 29.892,28.647 30.994,28.647 C32.382,28.647 33.882,27.945 35.43,26.557 C36.932,25.215 38.065,23.603 38.91,21.64 L39.294,20.746 L36.708,20.746 L36.533,21.081 C35.83,22.375 34.937,23.619 34.155,24.401 C33.485,25.071 32.798,25.455 32.255,25.455 C32.112,25.455 32.015,25.423 31.985,25.375 L31.92,25.263 C31.888,25.2 31.793,24.96 31.793,24.705 C31.793,24.065 32.527,21.928 33.277,19.805 L35.623,13.055 C36.533,10.692 36.98,9.128 37.155,8.425 C37.315,7.787 37.315,7.053 37.315,6.191 C37.315,4.675 36.868,3.558 35.878,2.551 C35.048,1.754 33.803,1.275 32.528,1.275 C30.643,1.275 28.84,2.073 26.861,3.765 C25.793,4.675 24.707,5.92 23.671,7.452 C23.734,6.91 23.766,6.415 23.766,5.922 C23.766,4.42 23.446,3.287 22.808,2.505 C22.186,1.707 21.116,1.275 19.68,1.275 C17.827,1.275 15.864,2.33 13.71,4.5 C12.768,5.442 11.906,6.447 11.14,7.5 C11.364,6.447 11.49,5.538 11.49,4.82 C11.49,3.91 11.22,3.096 10.693,2.378 C10.167,1.643 9.4,1.276 8.379,1.276 C6.989,1.276 5.617,1.963 4.197,3.399 C2.712,4.867 1.451,6.591 0.477,8.522 L0,9.446 L2.793,9.446 L2.969,9.111 C3.702,7.771 4.596,6.558 5.473,5.664 C6.399,4.739 6.878,4.611 7.101,4.611 C7.117,4.611 7.149,4.946 7.149,4.946 C7.149,5.281 6.622,7.181 6.079,9.176 L0.32,28.07 L5.203,28.07 L6.336,24.704 C8.746,16.628 11.06,11.361 13.406,8.632 C16.343,4.992 17.906,4.45 18.578,4.45 C18.673,4.45 18.913,4.466 18.945,4.578 L18.993,4.706 L19.088,4.801 C19.2,4.931 19.328,5.297 19.328,5.761 C19.328,6.686 18.898,8.633 18.115,11.234 L12.88,28.215 L17.907,28.215 L18.881,25.135 C21.308,16.931 23.734,11.297 26.096,8.377 C28.33,5.615 30.118,4.339 31.682,4.339 C32.128,4.34 32.287,4.45 32.4,4.61 L32.4,4.61 L32.4,4.61 Z M58.462,0.827 C57.76,0.827 57.185,1.131 56.834,1.673 C56.484,2.216 56.307,2.759 56.307,3.413 C56.307,4.147 56.674,5.105 57.377,6.238 C57.967,7.18 58.254,8.153 58.254,9.222 C58.254,10.818 57.792,13.532 55.574,17.33 C54.328,19.55 53.019,21.56 51.584,23.395 C52.284,19.965 52.636,16.389 52.636,12.525 C52.636,8.967 52.142,6.015 51.184,3.972 C50.018,1.833 48.694,0.843 47.018,0.843 C45.614,0.843 44.338,1.578 43.204,2.998 C42.071,4.291 41.432,6.318 41.129,9.558 L41.064,10.26 L43.586,10.26 L43.65,9.685 C44.146,5.185 45.12,4.833 45.39,4.833 C45.422,4.833 45.47,4.833 45.502,4.849 L45.614,4.864 C46.044,4.864 46.46,5.454 46.939,6.796 C47.464,8.232 47.736,10.356 47.736,13.068 C47.736,16.77 47.464,20.218 46.922,23.313 C46.332,26.729 45.789,28.819 45.198,29.873 C44.558,31.038 43.362,32.506 41.718,34.15 C40.042,35.826 38.542,36.895 37.584,37.486 C36.484,38.108 35.494,38.38 34.312,38.38 C33.674,38.38 32.636,38.284 31.312,37.853 C30.338,37.583 29.46,37.406 28.934,37.406 C28.199,37.406 27.544,37.613 26.939,38.06 C26.237,38.443 25.806,39.162 25.806,39.992 C25.806,40.982 26.253,41.747 27.083,42.21 C27.817,42.625 28.871,42.832 30.307,42.832 C32.43,42.832 34.457,42.274 36.691,41.092 C38.878,39.928 41.463,37.885 44.161,35.202 C46.826,32.666 49.555,29.697 52.763,25.899 C55.493,22.659 57.647,19.212 59.323,15.366 C60.839,11.903 61.573,8.918 61.573,6.269 C61.573,4.769 61.303,3.396 60.823,2.439 C60.344,1.434 59.451,0.827 58.462,0.827 L58.462,0.827 L58.462,0.827 Z" id="Combined-Shape"></path>
                        </g>
                        <g id="Group" transform="translate(66.000000, 0.000000)">
                            <path d="M0.282,0 L28.596,0 L28.596,8.14 L9.396,8.14 L9.396,19.47 L25.212,19.47 L25.212,27.483 L9.396,27.483 L9.396,44.465 L0.282,44.465 L0.282,0 L0.282,0 L0.282,0 Z M31.532,0 L61.904,0 L61.904,8.14 L51.34,8.14 L51.34,44.465 L41.954,44.465 L41.954,8.14 L31.532,8.14 L31.532,0 L31.532,0 L31.532,0 L31.532,0 Z" id="Shape"></path>
                        </g>
                    </g>
                </g>
            </g>
        </g>
    </g>
</svg>