<svg xmlns="http://www.w3.org/2000/svg" xmlns:xlink="http://www.w3.org/1999/xlink" viewBox="0 0 284 285"><defs><path id="a" d="M.268.413h283.465v284.173H.268z"/></defs><clipPath id="b"><use xlink:href="#a" overflow="visible"/></clipPath><g clip-path="url(#b)"><path fill="#D81423" d="M.267 61.025L142 142.855v141.732L.267 202.757"/></g><g clip-path="url(#b)"><defs><path id="c" d="M.268 202.757l127.698 73.727V134.752L.268 61.024z"/></defs><clipPath id="d"><use xlink:href="#c" overflow="visible"/></clipPath><g clip-path="url(#d)"><path fill="#D81723" d="M66.925 88.916c-33.71-19.464-61.04 1.197-61.04 46.146 0 44.948 27.33 97.165 61.04 116.63s61.042-1.198 61.042-46.146c0-44.95-27.33-97.167-61.042-116.63"/></g><path clip-path="url(#d)" fill="#D81723" d="M-94.147 39.12c-13.96-7.944-26.06-10.743-26.06 9.773 0 5.312.136 5.818 2.463 7.152 2.302 1.32 47.735 27.486 47.77 27.506 1.777 1.06 2.252.76 2.243-3.3-.05-21.23-10.13-31.86-26.42-41.13m-13.39 11.26l-1.56 5.41-1.58-7.24-4.98-2.9 4.03-1.63-1.52-7.2 4.07 6.24 4.04-1.55-1.52 5.49 4.02 6.246-5.01-2.846zm15.27 8.75l-1.56 5.41-1.58-7.24-4.98-2.9 4.03-1.63-1.53-7.2 4.07 6.24 4.04-1.55-1.52 5.49 4.02 6.246-5.01-2.843zM-77.02 68l-1.557 5.41-1.58-7.242-4.98-2.9 4.028-1.632-1.52-7.203 4.07 6.232 4.04-1.552-1.51 5.487 4.02 6.244L-77.02 68zm-41.113-10.05c-1.44-.844-1.944-.613-1.944 1.03 0 3.397-.194 29.527-.083 33.86.045 1.703.74 2.6 1.67 3.153 2.08 1.236 7.256 4.315 9.17 5.366 1.315.72 1.88.21 1.945-2.28.06-2.33-.028-6.3.028-9.77.018-1.17.328-1.86 1.23-1.37 2.29 1.23 11.09 6.31 12.84 7.37 2.218 1.35 2.573 1.52 2.628 4.62.07 3.68.06 5.902-.02 8.67-.09 2.95.66 3.66 1.86 4.392 1.78 1.08 5.89 3.32 7.94 4.547 2.73 1.63 2.68.49 2.71-4.24.02-2.035 0-9.16-.05-12.44-.01-.815.3-1.205.71-.98 1.68.93 2.02 6.975 2.44 10.13 1.54 11.71 5.09 15.14 8.32 17.035 4.06 2.375 7.93.122 7.94-9.106 0-1.39-.22-2.72-.98-3.16-3.422-1.98-1.423-.76-3.23-1.87-.96-.59-1.805-.89-1.614 1.19.194 2.08.278 5.802-1.586 4.81-.79-.42-1.42-1.55-1.42-3.706s-.11-24.158-.16-25.938c-.028-.965-.055-2.403-1.478-3.19-1.78-.976-45.95-26.47-48.837-28.156M-91.67 12.7c-27.347-15.786-49.515.97-49.515 37.43s22.165 78.817 49.51 94.604c27.347 15.785 49.514-.97 49.514-37.43s-22.17-78.814-49.51-94.6m0 121.046c-22.8-13.15-41.28-48.456-41.28-78.85 0-30.39 18.48-44.36 41.27-31.2s41.27 48.466 41.27 78.86c0 30.39-18.478 44.36-41.27 31.2"/><g clip-path="url(#d)"><path fill="#FFF" d="M64.46 130.69c-13.96-7.942-26.06-10.74-26.06 9.775 0 5.312.136 5.818 2.463 7.152 2.302 1.32 47.735 27.486 47.77 27.506 1.777 1.057 2.252.754 2.243-3.303-.044-21.23-10.128-31.86-26.416-41.13m-13.39 11.255l-1.556 5.41-1.58-7.24-4.98-2.903 4.028-1.632-1.522-7.204 4.07 6.235 4.04-1.55-1.514 5.49 4.02 6.25-5.006-2.84zm15.275 8.743l-1.556 5.41-1.58-7.24-4.99-2.902 4.03-1.633-1.53-7.203 4.07 6.234 4.04-1.55-1.52 5.484 4.02 6.245-5.01-2.845zm15.248 8.876l-1.557 5.412-1.578-7.243-4.982-2.9 4.03-1.633-1.523-7.204 4.068 6.234 4.05-1.553-1.51 5.486 4.02 6.244-5-2.843zm-41.113-10.05c-1.44-.843-1.944-.612-1.944 1.03 0 3.398-.193 29.528-.082 33.86.043 1.704.74 2.6 1.67 3.154 2.08 1.238 7.254 4.317 9.17 5.368 1.313.722 1.88.21 1.943-2.273.06-2.328-.028-6.295.028-9.765.018-1.17.328-1.855 1.23-1.37 2.29 1.23 11.09 6.31 12.84 7.377 2.218 1.353 2.573 1.52 2.628 4.62.065 3.68.055 5.907-.028 8.67-.088 2.953.657 3.665 1.86 4.397 1.78 1.08 5.887 3.32 7.94 4.547 2.73 1.62 2.678.48 2.71-4.24.014-2.04.002-9.17-.055-12.45-.014-.82.3-1.21.712-.98 1.673.93 2.022 6.97 2.436 10.13 1.535 11.71 5.085 15.13 8.322 17.03 4.058 2.37 7.924.12 7.938-9.11.002-1.39-.22-2.72-.985-3.16-3.423-1.98-1.424-.76-3.23-1.87-.958-.59-1.807-.9-1.615 1.18.192 2.08.276 5.8-1.588 4.81-.793-.42-1.423-1.55-1.423-3.708s-.114-24.157-.164-25.937c-.028-.97-.055-2.407-1.478-3.19-1.778-.98-45.95-26.47-48.835-28.16m26.445-45.226c-27.345-15.788-49.513.97-49.513 37.43s22.168 78.82 49.513 94.61c27.346 15.786 49.513-.97 49.513-37.43s-22.168-78.815-49.513-94.6m0 121.046c-22.794-13.16-41.273-48.46-41.273-78.86 0-30.39 18.48-44.36 41.273-31.2 22.794 13.16 41.273 48.47 41.273 78.86s-18.478 44.36-41.273 31.2"/></g></g><g clip-path="url(#b)"><defs><path id="e" d="M142 142.854v141.732l141.732-81.83V61.026z"/></defs><clipPath id="f"><use xlink:href="#e" overflow="visible"/></clipPath><g clip-path="url(#f)"><path fill="#00AEF3" d="M139.165 291.89l150.452-86.865V54.575l-150.452 86.862"/></g><g clip-path="url(#f)"><path fill="#FFF" d="M187.02 243.253h-.003c-21.018 0-34.6-15.22-34.6-38.77 0-32.855 25.485-73.304 58.02-92.086 10.655-6.153 21.31-9.405 30.816-9.405 21.018 0 34.6 15.22 34.6 38.77 0 32.854-25.484 73.302-58.016 92.085-10.656 6.155-21.314 9.406-30.818 9.406zm54.234-125.457c-6.91 0-15.007 2.566-23.416 7.42-27.438 15.84-50.616 52.14-50.616 79.267 0 20.854 12.403 23.968 19.797 23.968 6.91 0 15-2.56 23.41-7.42 27.43-15.84 50.61-52.14 50.61-79.26 0-20.85-12.41-23.97-19.8-23.97z"/></g><g clip-path="url(#f)"><path fill="#FFF" d="M211.83 202.655l-22.522 13.003v-56.385l22.283-12.865c20.21-11.666 34.43-13.884 34.43 8.16 0 21.642-13.74 36.282-34.18 48.087zm-4.553-39.54v27.952l5.032-2.905c11.1-6.41 15.49-11.98 15.49-22.682 0-11.102-4.95-11.358-16.3-4.81l-4.24 2.444z"/></g></g><g clip-path="url(#b)"><defs><path id="g" d="M.268.413h283.465v284.173H.268z"/></defs><clipPath id="h"><use xlink:href="#g" overflow="visible"/></clipPath><g opacity=".12" clip-path="url(#h)"><defs><path id="i" d="M134.206 48.442h157.32v241.8h-157.32z"/></defs><clipPath id="j"><use xlink:href="#i" overflow="visible"/></clipPath><g clip-path="url(#j)"><path d="M142 284.587l141.732-81.83V61.027L142 142.854"/></g></g></g><g clip-path="url(#b)"><path fill="#EDEDED" d="M142 .413L.267 61.023l141.73 81.122 141.734-81.12"/></g><g clip-path="url(#b)"><path fill="#4A4A49" d="M110.394 47.61l6.66-3.827 46.205 27.07-6.24 3.828"/></g></svg>
