<svg id="Layer_1" xmlns="http://www.w3.org/2000/svg" xmlns:xlink="http://www.w3.org/1999/xlink" viewBox="0 0 854.2 841.9"><style>.st0{clip-path:url(#SVGID_2_);} .st1{clip-path:url(#SVGID_2_);fill:#D42D17;}</style><defs><path id="SVGID_1_" d="M62 368.3h726.2v107.6H62z"/></defs><clipPath id="SVGID_2_"><use xlink:href="#SVGID_1_" overflow="visible"/></clipPath><path class="st0" d="M93.4 380v40.6h11.9c12.9 0 13.6-2.1 14.6-12.3h3.8v29.6h-3.8c-1-10.1-1.6-12.1-14.6-12.1H93.4V461c0 7.2 2 8.8 15.2 8.8v4.4H62v-4.4c9.7 0 13.1-.5 13.1-8.3v-73.6c0-7.9-3.4-8.3-13.1-8.3v-4.4h62c8.3 0 11.3-.3 13.9-.8V405h-4.1c-2.1-21.3-6.4-24.9-25.4-24.9h-15zM222.7 375.1c8.3 0 11.3-.3 13.9-.8v30.6h-4.1c-2.1-21.3-6.4-24.9-25.4-24.9h-5.2v81c0 7.7 2.9 8.8 15.2 8.8v4.4h-48.9v-4.4c12.3 0 15.4-1.1 15.4-8.8v-81h-5.2c-19 0-23.2 3.6-25.4 24.9h-4.1v-30.6c2.6.5 5.6.8 13.9.8h59.9z"/><path class="st1" d="M762 474.3h26.2v-3.4c-7.3 0-9.1-.8-9.1-8.8v-93.7h-27.9v3.4c8.8 0 10.8.8 10.8 8.8v27.1c-3.7-2.9-9-5.1-15.5-5.1-17.1 0-34.6 15-34.6 39.4 0 20.4 13.4 33.9 29.5 33.9 9.5 0 16.8-5.2 20.5-10.6v9zm-12.4-6.2c-12.6 0-19.9-12.4-19.9-29.7 0-21 9.9-30.8 20.9-30.8 4.6 0 8.5 1.3 11.4 3.9V462c-2.9 3.9-7.7 6.1-12.4 6.1m-81.2 2.7c-7.3 0-9-.8-9-8.8v-41.6c2.8-5.2 7.5-8.6 13-8.6 8.5 0 13.4 5.5 13.4 17.3V462c0 8-1.6 8.8-8.8 8.8v3.4h35.2v-3.4c-7.3 0-9-.8-9-8.8v-35.7c0-13-7-23.8-21.8-23.8-10.4 0-18.7 7.8-22 14.3v-12.7H633v3.4c7.3 0 9 .8 9 8.8V462c0 8-1.6 8.8-9 8.8v3.4h35.4v-3.4zm-66.5-63.9c8.6 0 12.7 8.3 13.2 19.9H586c1.3-13 7.5-19.9 15.9-19.9m29.4 53.3l-2.1-2c-4.4 5.9-9.8 8.5-16.6 8.5-15.8 0-26.9-14.3-26.9-34.1v-1.8h44.5c0-13.5-9-28.4-27.7-28.4-17 0-33.3 16.1-33.3 37.7 0 21 15.8 35.7 35 35.7 10.4.1 20.7-5.3 27.1-15.6m-93.8-31.9l13.5-11.7c6-5.2 11.6-9 19.9-9v-3.4h-28v3.4c4.9 0 6.8.8 6.8 2.3 0 1.3-1.5 3.1-3.7 5.2l-23.3 21s1.8 2 3.9 4.6l23.6 33.6h24.6v-3.4c-5.4-.3-8.3-2.3-14.3-10.1l-23-32.5zM504.3 462c0 8-1.6 8.8-9 8.8v3.4h35.2v-3.4c-7.2 0-8.8-.8-8.8-8.8v-93.7h-28v3.4c8.6 0 10.6.8 10.6 8.8V462zm-39-55.1c8.6 0 12.7 8.3 13.2 19.9h-29.2c1.4-13 7.6-19.9 16-19.9m29.4 53.3l-2.1-2c-4.4 5.9-9.8 8.5-16.6 8.5-15.8 0-26.9-14.3-26.9-34.1v-1.8h44.5c0-13.5-9-28.4-27.7-28.4-17 0-33.3 16.1-33.3 37.7 0 21 15.8 35.7 35 35.7 10.5.1 20.7-5.3 27.1-15.6m-96.5-53.3c8.6 0 12.7 8.3 13.2 19.9h-29.2c1.3-13 7.5-19.9 16-19.9m29.3 53.3l-2.1-2c-4.4 5.9-9.8 8.5-16.6 8.5-15.8 0-26.9-14.3-26.9-34.1v-1.8h44.5c0-13.5-9-28.4-27.7-28.4-17 0-33.3 16.1-33.3 37.7 0 21 15.8 35.7 35 35.7 10.5.1 20.8-5.3 27.1-15.6m-88.6 15.7h1.1l30.8-86.6c2.9-7.8 6.7-10.1 15.8-10.1v-3.7h-33.7v3.7c7.5 0 12.6.8 12.6 6 0 1.1-.2 2.6-.8 4.4L345.2 447l-20.5-59.3c-.8-2-1.1-3.6-1.1-4.7 0-3.3 3.4-3.7 11.6-3.7v-3.7H294v3.7c8.1 0 9.6.8 12.4 8.5l6.4 17.3-14.8 42.2-22.3-59.5c-.8-2.3-1.3-3.9-1.3-5.1 0-3.1 2.9-3.4 10.6-3.4v-3.7h-41.4v3.7c8.8 0 10.4 1 13.4 8.5l34.4 88.2h1.3l22.8-63.9 23.4 63.8z"/></svg>