<svg id="Layer_1" xmlns="http://www.w3.org/2000/svg" viewBox="0 0 1024 1024">
  <style>
    .st0{fill:#FCD0B1;} .st1{fill:#333333;}
  </style>
  <title>
    FT OLD Square Gradient PlainV2
  </title>
  <rect x="-.3" class="st0" width="1024.7" height="1024.8"/>
  <path class="st1" d="M116.6,142.1v20.8c45.3,0,61.5,2.3,61.5,39.2v346.2c0,36.9-16.1,39.2-61.5,39.2v20.8h219.3v-20.8	c-62.4,0-71.6-7.6-71.6-41.5V380.7h56.2c60.8,0,63.9,9.2,68.5,56.9h17.7V298.3H389c-4.6,47.7-7.7,57.7-68.5,57.7h-56.2V165.3h70.8	c89.3,0,109.3,16.9,119.3,116.9h19.2V138.3c-12.3,2.3-26.2,3.8-65.4,3.8H116.6z M871.8,142.1H590.5c-39.2,0-53.1-1.5-65.4-3.8v143.8	h19.2c9.9-100,30-116.9,119.2-116.9h24.6V546c0,36.1-14.6,41.5-72.3,41.5v20.8h230v-20.8c-57.7,0-71.6-5.3-71.6-41.5V165.3h24.6	c89.2,0,109.2,16.9,119.2,116.9h19.2V138.3C924.9,140.6,911,142.1,871.8,142.1z"/>
</svg>
