<svg xmlns="http://www.w3.org/2000/svg" xmlns:xlink="http://www.w3.org/1999/xlink" viewBox="0 0 284 285"><defs><path id="a" d="M.27.4h283.46v284.2H.27z"/></defs><clipPath id="b"><use xlink:href="#a" overflow="visible"/></clipPath><g clip-path="url(#b)"><path fill="#D81423" d="M.27 61.02L142 142.85V284.6L.27 202.75"/></g><g clip-path="url(#b)"><defs><path id="c" d="M.27 202.76l127.7 73.72V134.75L.27 61.02z"/></defs><clipPath id="d"><use xlink:href="#c" overflow="visible"/></clipPath><g clip-path="url(#d)"><path fill="#D81723" d="M66.92 88.92c-33.7-19.47-61.04 1.2-61.04 46.14 0 44.95 27.33 97.17 61.05 116.63s61.04-1.2 61.04-46.2-27.33-97.2-61.05-116.7"/></g><path clip-path="url(#d)" fill="#D81723" d="M-94.15 39.12c-13.96-7.94-26.06-10.74-26.06 9.77 0 5.3.1 5.8 2.4 7.1 2.3 1.3 47.7 27.5 47.7 27.5 1.8 1 2.2.7 2.2-3.3 0-21.2-10.1-31.9-26.4-41.1m-13.4 11.2l-1.6 5.4-1.6-7.3-5-2.9 4-1.7-1.5-7.2 4.1 6.2 4-1.5-1.5 5.4 4 6.2-5-2.9zm15.3 8.7l-1.6 5.4-1.6-7.2-5-2.9 4-1.7-1.5-7.2 4 6.2 4-1.6-1.5 5.5 4 6.2-5-2.8zm15.2 8.9l-1.6 5.4-1.6-7.2-5-2.9 4-1.7-1.5-7.2 4 6.2 4-1.6-1.5 5.5 4 6.2-5-2.9zm-41.1-10.1c-1.5-.9-2-.6-2 1 0 3.4-.2 29.5-.1 33.8 0 1.7.7 2.6 1.6 3.1 2.1 1.2 7.2 4.3 9.2 5.4 1.3.7 1.9.2 1.9-2.3 0-2.3-.1-6.3 0-9.8 0-1.2.3-1.9 1.2-1.4 2.3 1.2 11.1 6.3 12.8 7.4 2.2 1.3 2.5 1.5 2.6 4.6.1 3.7 0 5.9 0 8.63-.1 3 .6 3.7 1.8 4.4 1.7 1.1 5.8 3.36 7.9 4.6 2.7 1.66 2.6.5 2.7-4.2 0-2.04 0-9.17-.1-12.44 0-.8.3-1.2.7-.98 1.7.9 2 6.9 2.44 10.1 1.5 11.7 5.1 15.1 8.3 17 4.05 2.4 7.9.1 7.93-9.1 0-1.4-.25-2.7-1-3.2-3.44-1.97-1.44-.75-3.24-1.86-.9-.6-1.8-.9-1.6 1.2.2 2.1.3 5.8-1.6 4.8-.8-.4-1.4-1.55-1.4-3.7l-.1-25.9c0-1-.03-2.4-1.5-3.2l-48.8-28.2m26.5-45.1c-27.35-15.8-49.5 1-49.5 37.4s22.15 78.8 49.5 94.6c27.34 15.8 49.5-1 49.5-37.44S-64.64 28.4-92 12.6m0 121.04C-114.55 120.7-133 85.4-133 55s18.47-44.36 41.27-31.2 41.23 48.4 41.23 78.78c0 30.4-18.5 44.36-41.27 31.2"/><g clip-path="url(#d)"><path fill="#FFF" d="M64.46 130.7c-13.96-7.95-26.06-10.75-26.06 9.77 0 5.3.14 5.8 2.46 7.15l47.77 27.5c1.78 1.06 2.25.76 2.25-3.3-.05-21.23-10.13-31.86-26.42-41.13m-13.4 11.2l-1.55 5.4L48 140l-5-2.9 4.08-1.6-1.5-7.2 4.06 6.22 4.04-1.55-1.5 5.47 4 6.24-5-2.85zm15.28 8.7L64.8 156l-1.6-7.23-5-2.9 4-1.64-1.5-7.2 4.03 6.22 4.04-1.57-1.5 5.5 4 6.23-5-2.8zm15.25 8.8l-1.6 5.5-1.6-7.3-5-2.9 4-1.7-1.6-7.2 4.1 6.2 4-1.5-1.5 5.4 4 6.2-5-2.9zm-41.2-10c-1.5-.9-2-.6-2 1 0 3.4-.2 29.5-.1 33.8 0 1.7.7 2.6 1.7 3.1 2.1 1.2 7.2 4.3 9.1 5.3 1.3.7 1.8.2 1.9-2.3.1-2.4 0-6.3 0-9.8 0-1.2.3-1.9 1.2-1.4 2.3 1.2 11.1 6.3 12.8 7.3 2.2 1.3 2.6 1.5 2.7 4.6 0 3.7 0 5.9-.1 8.7-.1 2.9.6 3.6 1.8 4.4 1.7 1.1 5.8 3.3 7.9 4.5 2.7 1.6 2.7.5 2.7-4.2V192c-.1-.8.3-1.2.7-1 1.6.9 2 6.94 2.4 10.1 1.5 11.7 5.1 15.16 8.3 17.05 4 2.4 7.9.13 7.9-9.1 0-1.4-.2-2.7-1-3.16-3.4-2-1.4-.8-3.2-1.9-1-.6-1.8-.9-1.6 1.2.14 2.1.22 5.8-1.6 4.8-.8-.4-1.46-1.6-1.46-3.7s-.14-24.2-.2-25.9c-.06-1-.1-2.4-1.5-3.2-1.8-1-45.95-26.5-48.84-28.2m26.68-45c-27.38-15.8-49.5.9-49.5 37.4s22.13 78.8 49.5 94.6c27.3 15.8 49.5-1 49.5-37.4S94 119.8 66.68 104m0 121.04C44 212 25.5 176.7 25.5 146.3s18.5-44.35 41.28-31.2c22.84 13.17 41.3 48.47 41.3 78.87s-18.47 44.35-41.27 31.2"/></g></g><g clip-path="url(#b)"><defs><path id="e" d="M142 142.85V284.6l141.73-81.84V61.02z"/></defs><clipPath id="f"><use xlink:href="#e" overflow="visible"/></clipPath><g clip-path="url(#f)"><path fill="#00AEF3" d="M139.16 291.9l150.46-86.87V54.56l-150.46 86.87"/></g><g clip-path="url(#f)"><path fill="#FFF" d="M187.02 243.25c-21.02 0-34.6-15.22-34.6-38.77 0-32.85 25.48-73.3 58.02-92.08 10.65-6.16 21.3-9.4 30.8-9.4 21.03 0 34.6 15.2 34.6 38.76 0 32.86-25.47 73.3-58 92.1-10.66 6.14-21.32 9.4-30.82 9.4zm54.23-125.45c-6.9 0-15 2.56-23.4 7.42-27.45 15.84-50.63 52.14-50.63 79.26 0 20.86 12.4 23.97 19.8 23.97 6.9 0 15-2.56 23.42-7.42 27.43-15.84 50.6-52.14 50.6-79.27 0-20.85-12.4-23.96-19.8-23.96z"/></g><g clip-path="url(#f)"><path fill="#FFF" d="M211.83 202.66l-22.52 13v-56.4l22.3-12.85c20.2-11.6 34.4-13.8 34.4 8.2 0 21.7-13.7 36.3-34.1 48.1zm-4.55-39.55v28l5.03-2.9c11.1-6.4 15.5-12 15.5-22.7 0-11.1-4.9-11.3-16.3-4.8l-4.2 2.5z"/></g></g><g clip-path="url(#b)"><defs><path id="g" d="M.27.4h283.46v284.2H.27z"/></defs><clipPath id="h"><use xlink:href="#g" overflow="visible"/></clipPath><g opacity=".12" clip-path="url(#h)"><defs><path id="i" d="M134.2 48.44h157.33v241.8H134.2z"/></defs><clipPath id="j"><use xlink:href="#i" overflow="visible"/></clipPath><g clip-path="url(#j)"><path d="M142 284.6l141.73-81.84V61.03L142 142.83"/></g></g></g><g clip-path="url(#b)"><path fill="#EDEDED" d="M142 .4L.27 61.03 142 142.15l141.73-81.13"/></g><g clip-path="url(#b)"><path fill="#4A4A49" d="M110.4 47.6l6.65-3.82 46.2 27.07-6.23 3.83"/></g></svg>