<svg xmlns="http://www.w3.org/2000/svg" xmlns:xlink="http://www.w3.org/1999/xlink" viewBox="0 0 272 272"><path d="M136 271L1 136 136 1l135 135z"/><path fill="#FFF" d="M130.64 10.8L5.84 135.63l128.5 128.5h1.22V10.8"/><path fill="#003976" d="M130.65 10.8L54.6 86.86l80.96-40.5V10.8m-1.22 253.32h1.22v-35.56l-73.58-36.8"/><path fill="#E03A3E" d="M5.84 135.62l29.58 29.6v-2.4h100.14v-50.7H35.43V106m21.22-10.7H94.4l41.16-20.58v-18.9M94.4 179.62l41.16 20.6v-18.9l-3.4-1.7"/><defs><path id="a" d="M132.43 9.03L5.83 135.63l129.73 129.7V9.03z"/></defs><clipPath id="b"><use xlink:href="#a" overflow="visible"/></clipPath><path clip-path="url(#b)" fill="none" stroke="#000" stroke-width=".45" d="M-243.23 10.8h506.6v253.3h-506.6z"/><defs><path id="c" d="M136 271L1 136 136 1l135 135z"/></defs><clipPath id="d"><use xlink:href="#c" overflow="visible"/></clipPath><path clip-path="url(#d)" fill="none" stroke="#FFF" stroke-width="8.84" d="M135.56 5.9L5.84 135.62l129.72 129.72z"/><path fill="#007DBD" d="M136.12 265.34l129.72-129.72L136.12 5.9"/><path fill="#007DBE" d="M136.12 49.24V220.5h44.83l70-70v-29.77l-71.5-71.5"/><path fill="#FD0" d="M136.12 61.7v3.04l4.17-3.03m40.92 106.47H170.9l8.34 6.06-3.06 9.9 8.35-6.06 8.54 6.07-3.25-9.92 8.34-6.05h-10.38l-3.25-9.9m-48.4 42.5v2.4l3.27-2.4m51.96-68.8h-10.38l8.35 6.05-3.06 9.9 8.35-6.06 8.54 6.06-3.25-9.9 8.4-6.06h-10.4l-3.24-9.9M157.7 71.8h-10.4l8.34 6.06-3.05 9.9 8.3-6.05 8.52 6.08-3.26-9.9 8.34-6.06h-10.3l-3.27-9.9m22.87 35.5h-10.4l8.36 6.05-3.06 9.9 8.35-6.06 8.54 6.03-3.3-9.9 8.32-6.06H190.3l-3.25-9.9M156.5 192.72h-10.4l8.35 6.06-3.05 9.9 8.35-6.1 8.54 6.08-3.3-9.9 8.32-6.08H163l-3.25-9.9"/><defs><path id="e" d="M136 271L1 136 136 1l135 135z"/></defs><clipPath id="f"><use xlink:href="#e" overflow="visible"/></clipPath><path clip-path="url(#f)" fill="none" stroke="#FFF" stroke-width="8.84" d="M136.12 5.9l129.72 129.72-129.72 129.72z"/></svg>