<svg width="187" height="50" viewBox="0 0 187 50" xmlns="http://www.w3.org/2000/svg"><title>brand-fastft</title><g fill="none" fill-rule="evenodd"><g fill="#C0282E"><path d="M.812 50l3.95-22.366H0l1.136-6.29H5.9l.433-2.634C7.144 13.925 9.2 10 17.48 10c1.732 0 5.033.269 5.52.43l-1.082 6.022c-.433-.162-1.732-.323-3.031-.323-1.677 0-3.572.538-4.004 3.602l-.27 1.613h6.114l-1.137 6.29h-6.168L9.47 50H.81M34.804 41.226l.948-5.305c-7.006.419-10.113 2.258-10.113 5.147 0 1.524 1.105 2.575 3.213 2.575 2.423 0 4.266-.998 5.952-2.417zM17 42.906c0-7.196 6.373-10.82 19.542-11.451l.105-.683c.37-2.102-.579-3.415-3.634-3.415-2.581 0-5.953 1.05-8.85 2.574l-2.844-5.254C24.006 22.84 29.009 21 34.75 21c8.955 0 11.22 4.676 9.903 11.505L42.81 42.75c-.526 3.047-.737 4.467-.421 6.831H33.96c-.158-1.42-.158-2.627.106-4.098C31.222 48.423 28.009 50 24.796 50 20.213 50 17 47.162 17 42.906zM45 45.401l4.39-4.441c2.141 2.039 5.568 3.658 9.583 3.658 2.195 0 4.229-.68 4.229-2.822 0-4.337-14.133-2.403-14.133-11.234 0-6.792 5.835-9.562 11.136-9.562 6.424 0 10.01 1.62 12.795 3.919l-4.016 4.703c-2.248-1.829-5.086-2.979-8.191-2.979-1.98 0-3.426.784-3.426 2.56 0 4.39 14.187 2.509 14.187 10.922 0 8.099-7.548 9.875-12.688 9.875-7.28 0-11.403-2.038-13.866-4.599M78.574 27.182H74l1.092-6.31h4.574L81.329 11h8.317l-1.611 9.871H95l-1.092 6.311h-7.017l-2.079 12.353c-.52 3.183 0 4.153 3.067 4.153.883 0 2.08-.108 2.703-.323l-.884 6.149c-.624.216-3.586.486-5.354.486-8.369 0-9.044-3.615-8.16-9.063l2.39-13.755z"/></g><path d="M115.61 23.4h5.917c6.413 0 6.761-1.04 7.258-6.085h1.889v14.643h-1.89c-.496-4.996-.795-5.986-7.257-5.986h-5.917v17.414c0 3.562.994 4.353 7.556 4.353v2.177H100V47.74c4.822 0 6.512-.247 6.512-4.106V7.173c0-3.908-1.69-4.106-6.512-4.106V.89h30.823c4.126 0 5.617-.148 6.91-.395v15.138h-2.038c-1.044-10.537-3.182-12.319-12.627-12.319h-7.458V23.4zM186.801.445v15.138h-2.038c-1.044-10.537-3.182-12.318-12.627-12.318h-2.586v40.072c0 3.809 1.442 4.353 7.557 4.353v2.177h-24.31V47.69c6.115 0 7.655-.544 7.655-4.353V3.265h-2.584c-9.446 0-11.534 1.78-12.628 12.318h-2.038V.445c1.292.248 2.784.396 6.91.396h29.779c4.126 0 5.617-.148 6.91-.396z" fill="#333"/></g></svg>
