<svg xmlns="http://www.w3.org/2000/svg" viewBox="0 0 1024 1024" height="1024" width="1024"><title>brand-ft-logo-square-coloured</title><g fill="none" fill-rule="evenodd"><path d="M0 0h1024v1024H0z" fill="#fff1e0"/><path d="M257.976 199.397v183.098h54.136c58.585 0 61.548-9.595 65.998-55.373h17.06v133.63h-17.06c-4.45-45.773-7.417-54.633-65.998-54.633h-54.136V564.85c0 32.484 8.898 39.86 68.965 39.86v19.938H115.595v-19.938c43.756 0 59.324-2.202 59.324-37.65v-332.23c0-35.435-15.568-37.65-59.324-37.65v-19.934H396.65c37.82 0 51.17-1.475 63.03-3.694v138.064h-18.535c-9.642-95.98-28.926-112.22-114.942-112.22h-68.227zm591.355-22.153c37.826 0 51.174-1.47 63.036-3.686v138.055H893.82c-9.642-95.976-28.917-112.22-114.938-112.22H755.15v365.46c0 34.703 13.353 39.868 68.966 39.868v19.93H602.393v-19.93c55.61 0 69.704-5.164 69.704-39.868V199.388h-23.733c-86.016 0-105.3 16.244-114.937 112.22H514.89V173.555c11.863 2.215 25.21 3.685 63.03 3.685h271.41v.005z" fill="#333"/></g></svg>