<svg width="100" height="92" viewBox="0 0 100 92" xmlns="http://www.w3.org/2000/svg"><title>Shape</title><path d="M0 0v91.823h100V0H0zm43.682 25.142h-1.793c-.918-9.313-2.798-10.888-11.106-10.888h-6.56v17.753h5.204c5.64 0 5.947-.918 6.384-5.378h1.662V39.57H35.81c-.437-4.416-.7-5.29-6.384-5.29h-5.203v15.391c0 3.148.874 3.848 6.646 3.848v1.924H10.494V53.52c4.241 0 5.728-.219 5.728-3.63V17.71c0-3.455-1.487-3.63-5.728-3.63v-1.923h27.11c3.63 0 4.94-.132 6.078-.35v13.336zm43.157 0h-1.793c-.918-9.313-2.799-10.888-11.106-10.888h-2.274v35.418c0 3.367 1.268 3.848 6.646 3.848v1.924H56.93V53.52c5.379 0 6.734-.481 6.734-3.848V14.254H61.39c-8.307 0-10.144 1.575-11.106 10.888h-1.793v-13.38c1.137.219 2.45.35 6.078.35h26.192c3.629 0 4.94-.131 6.078-.35v13.38z" fill="#000" fill-rule="evenodd"/></svg>
