<svg xmlns="http://www.w3.org/2000/svg" viewBox="0 0 1024 1024.1"><path d="M0 0v1024h1024V0H0z" fill="#fff"/><path d="M473.6 281.9h-19.2c-10.1-99.9-30.1-116.8-119.2-116.8h-70.8v190.7h56.2c60.8 0 63.9-10 68.5-57.7h17.7v139.1H389c-4.6-47.7-7.7-56.9-68.5-56.9h-56.2v165.3c0 33.8 9.3 41.5 71.6 41.5v20.8H116.8v-20.8c45.3 0 61.5-2.3 61.5-39.2V202c0-36.9-16.1-39.2-61.5-39.2V142h291.4c39.2 0 53.1-1.5 65.4-3.8v143.7zM936.8 281.9h-19.2c-10-99.9-30-116.8-119.1-116.8h-24.6v380.5c0 36.1 13.9 41.5 71.6 41.5v20.8H615.6v-20.8c57.7 0 72.3-5.3 72.3-41.5V165.2h-24.7C574 165.2 554 182.1 544 282h-19.2V138.2c12.3 2.3 26.2 3.8 65.4 3.8h281.3c39.3 0 53.1-1.5 65.3-3.8v143.7z"/></svg>