<svg width="307" height="197" viewBox="0 0 307 197" xmlns="http://www.w3.org/2000/svg"><title>Slice 1</title><g fill="none" fill-rule="evenodd"><path fill="#0F2446" d="M63.4 131.48v64.67l-29.58-28.17"/><path fill="#0F2446" d="M147.8 139.87L0 185.23V45.35L147.8 0z"/><path fill="#FFF" d="M23.7 53.64l-1.3 7.15-7.5 1.23 6.7 3.16-1.32 7.15 5.43-5.2 6.69 3.18-3.34-6.37 5.46-5.18-7.5 1.26-3.32-6.38zM56.56 42.57l-1.29 7.15-7.51 1.24 6.7 3.15-1.32 7.15 5.43-5.2 6.69 3.18-3.34-6.37 5.46-5.18-7.5 1.26-3.32-6.38zM89.16 31.95l-1.3 7.15-7.51 1.24 6.71 3.16-1.33 7.14 5.44-5.2 6.69 3.18-3.34-6.37 5.45-5.18-7.5 1.27-3.31-6.39zM122.22 21.4l-1.3 7.15-7.51 1.23 6.71 3.16-1.33 7.15 5.44-5.2 6.69 3.18-3.34-6.37 5.45-5.18-7.31.55-3.5-5.67zM23.8 83.62l-1.3 7.15-7.51 1.24 6.71 3.16-1.33 7.14 5.44-5.2 6.69 3.18-3.34-6.37 5.45-5.18-7.5 1.26-3.31-6.38zM56.6 73.03l-1.3 7.16-7.51 1.23 6.71 3.16-1.33 7.15 5.44-5.2 6.69 3.18-3.34-6.37 5.46-5.18-7.51 1.26-3.31-6.39zM89.19 62.42l-1.29 7.15-7.51 1.24 6.7 3.15-1.32 7.15 5.44-5.2 6.68 3.18-3.34-6.37 5.46-5.18-7.5 1.26-3.32-6.38zM122.32 51.21l-1.29 7.16-7.51 1.23 6.7 3.16-1.32 7.15 5.44-5.21 6.68 3.19-3.34-6.37 5.46-5.19-7.32.56-3.5-5.68zM23.83 113.54l-1.29 7.15-7.51 1.24 6.7 3.15-1.32 7.15 5.43-5.2 6.69 3.18-3.34-6.37 5.46-5.18-7.5 1.26-3.32-6.38zM56.63 102.95l-1.29 7.16-7.51 1.23 6.7 3.16-1.32 7.14 5.44-5.2 6.69 3.19-3.35-6.38 5.46-5.18-7.5 1.27-3.32-6.39zM89.23 92.33l-1.3 7.16-7.5 1.23 6.7 3.16-1.32 7.15 5.43-5.2 6.69 3.18-3.34-6.37 5.46-5.19-7.51 1.27-3.31-6.39zM122.36 81.13l-1.3 7.15-7.5 1.24 6.7 3.16-1.33 7.15 5.44-5.21 6.69 3.19-3.34-6.38 5.46-5.18-7.32.56-3.5-5.68zM23.92 143.91l-1.29 7.15-7.51 1.23 6.7 3.16-1.32 7.15 5.44-5.2 6.69 3.18-3.35-6.37 5.46-5.18-7.5 1.26-3.32-6.38zM56.93 133.25l-1.29 7.15-7.51 1.23 6.7 3.16-1.32 7.15 5.44-5.2 6.69 3.18-3.34-6.37 5.45-5.18-7.5 1.26-3.32-6.38zM89.27 122.25l-1.3 7.16-7.51 1.23 6.71 3.16-1.33 7.14 5.44-5.2 6.69 3.19-3.34-6.37 5.45-5.19-7.5 1.27-3.31-6.39zM122.64 111.68l-1.3 7.15-7.51 1.24 6.71 3.16-1.32 7.15 5.43-5.21 6.69 3.18-3.34-6.37 5.46-5.18-7.32.56-3.5-5.68z"/><path fill="#E81B23" d="M243.19 131.48v64.67l29.58-28.17"/><path fill="#E81B23" d="M158.79 139.87l147.8 45.36V45.35L158.79 0z"/><path fill="#FFF" d="M158.79 31.08l147.8 45.35V60.88l-147.8-45.35zM158.79 62.26l147.8 45.35V92.06l-147.8-45.35zM158.79 93.44l147.8 45.35v-15.54l-147.8-45.36zM158.79 124.62l147.8 45.35v-15.54l-147.8-45.36z"/></g></svg>