<svg width="822" height="471" viewBox="0 0 822 471" xmlns="http://www.w3.org/2000/svg"><title>FT</title><path d="M.6 4.1v20.8c45.4 0 61.5 2.3 61.5 39.2v346.2c0 36.9-16.2 39.2-61.5 39.2v20.8h219.3v-20.8c-62.3 0-71.6-7.7-71.6-41.5V242.6h56.2c60.8 0 63.9 9.2 68.5 56.9h17.7V160.3H273c-4.6 47.7-7.7 57.7-68.5 57.7h-56.2V27.2h70.8c89.2 0 109.2 16.9 119.3 116.9h19.2V.3c-12.3 2.3-26.2 3.8-65.4 3.8H.6zm755.2 0H474.3c-39.2 0-53.1-1.5-65.4-3.8v143.9h19.2c10-100 30-116.9 119.2-116.9H572V408c0 36.2-14.6 41.5-72.3 41.5v20.8h230v-20.8c-57.7 0-71.6-5.4-71.6-41.5V27.2h24.6c89.2 0 109.2 16.9 119.2 116.9h19.2V.3c-12.2 2.3-26 3.8-65.3 3.8z" fill-rule="nonzero" fill="#000"/></svg>
