<?xml version="1.0" encoding="UTF-8"?><svg xmlns="http://www.w3.org/2000/svg" viewBox="0 0 1024.7 1024.8" version="1.2" baseProfile="tiny-ps"><title>FT Logo</title><defs></defs><path d="M-.3,0H1024.4V1024.8H-.3Z" transform="translate(0.3)" fill="#fcd0b1"></path><path d="M114.8,280.8v20.8c45.3,0,61.5,2.3,61.5,39.2V687c0,36.9-16.1,39.2-61.5,39.2V747H334.1V726.2c-62.4,0-71.6-7.6-71.6-41.5V519.4h56.2c60.8,0,63.9,9.2,68.5,56.9h17.7V437H387.2c-4.6,47.7-7.7,57.7-68.5,57.7H262.5V304h70.8c89.3,0,109.3,16.9,119.3,116.9h19.2V277c-12.3,2.3-26.2,3.8-65.4,3.8Zm755.2,0H588.7c-39.2,0-53.1-1.5-65.4-3.8V420.8h19.2c9.9-100,30-116.9,119.2-116.9h24.6V684.7c0,36.1-14.6,41.5-72.3,41.5V747H844V726.2c-57.7,0-71.6-5.3-71.6-41.5V304H797c89.2,0,109.2,16.9,119.2,116.9h19.2V277C923.1,279.3,909.2,280.8,870,280.8Z" transform="translate(0.3)"></path></svg>