<svg id="Layer_1" data-name="Layer 1" xmlns="http://www.w3.org/2000/svg" viewBox="0 0 726.2 107.6"><defs><style>.cls-1{fill:#1d1d1b;}.cls-2{fill:#d42d17;}</style></defs><title>brand-ft-weekend-masterhead</title><path class="cls-1" d="M35,15.2V55.8H46.9c12.9,0,13.6-2.1,14.6-12.3h3.8V73.1H61.5C60.5,63,59.9,61,46.9,61H35V96.2c0,7.2,2,8.8,15.2,8.8v4.4H3.6V105c9.7,0,13.1-.5,13.1-8.3V23c0-7.9-3.4-8.3-13.1-8.3V10.3h62c8.3,0,11.3-.3,13.9-0.8V40.1H75.4C73.3,18.8,69,15.2,50,15.2H35Z" transform="translate(-3.6 -3.5)"/><path class="cls-1" d="M164.2,10.3c8.3,0,11.3-.3,13.9-0.8V40.1H174c-2.1-21.3-6.4-24.9-25.4-24.9h-5.2v81c0,7.7,2.9,8.8,15.2,8.8v4.4H109.7V105c12.3,0,15.4-1.1,15.4-8.8v-81h-5.2c-19,0-23.2,3.6-25.4,24.9H90.4V9.5c2.6,0.5,5.6.8,13.9,0.8h59.9Z" transform="translate(-3.6 -3.5)"/><path class="cls-2" d="M703.5,109.5h26.2V106c-7.3,0-9.1-.8-9.1-8.8V3.5H692.8V6.9c8.8,0,10.8.8,10.8,8.8V42.8a24.8,24.8,0,0,0-15.5-5.1c-17.1,0-34.6,15-34.6,39.4,0,20.4,13.4,33.9,29.5,33.9a25.3,25.3,0,0,0,20.5-10.6v9Zm-12.4-6.2c-12.6,0-19.9-12.4-19.9-29.7,0-21,9.9-30.8,20.9-30.8a16.7,16.7,0,0,1,11.4,3.9V97.2a15.5,15.5,0,0,1-12.4,6M610,106c-7.3,0-9-.8-9-8.8V55.7c2.8-5.2,7.5-8.6,13-8.6,8.5,0,13.4,5.5,13.4,17.3V97.2c0,8-1.6,8.8-8.8,8.8v3.4h35.2V106c-7.3,0-9-.8-9-8.8V61.5c0-13-7-23.8-21.8-23.8-10.4,0-18.7,7.8-22,14.3V39.4H574.6v3.4c7.3,0,9,.8,9,8.8V97.2c0,8-1.6,8.8-9,8.8v3.4H610V106ZM543.5,42.1c8.6,0,12.7,8.3,13.2,19.9H527.5c1.3-13,7.5-19.9,16-19.9m29.3,53.3-2.1-2c-4.4,5.9-9.8,8.5-16.6,8.5-15.8,0-26.9-14.3-26.9-34.1V66.1h44.5c0-13.5-9-28.4-27.7-28.4-17,0-33.3,16.1-33.3,37.7s15.8,35.7,35,35.7c10.4,0,20.7-5.4,27.1-15.6M479.1,63.5l13.5-11.7c6-5.2,11.6-9,19.9-9V39.4h-28v3.4c4.9,0,6.8.8,6.8,2.3s-1.5,3.1-3.7,5.2l-23.3,21s1.8,2,3.9,4.6l23.6,33.6h24.6V106c-5.4-.3-8.3-2.3-14.3-10.1ZM445.8,97.2c0,8-1.6,8.8-9,8.8v3.4h35.2V106c-7.2,0-8.8-.8-8.8-8.8V3.5h-28V6.9c8.6,0,10.6.8,10.6,8.8V97.2Zm-39-55.1c8.6,0,12.7,8.3,13.2,19.9H390.9c1.3-13,7.5-19.9,16-19.9m29.3,53.3-2.1-2c-4.4,5.9-9.8,8.5-16.6,8.5-15.8,0-26.9-14.3-26.9-34.1V66.1h44.5c0-13.5-9-28.4-27.7-28.4-17,0-33.3,16.1-33.3,37.7s15.8,35.7,35,35.7c10.4,0,20.7-5.4,27.1-15.6M339.7,42.1c8.6,0,12.7,8.3,13.2,19.9H323.8c1.3-13,7.5-19.9,16-19.9m29.3,53.3-2.1-2c-4.4,5.9-9.8,8.5-16.6,8.5-15.8,0-26.9-14.3-26.9-34.1V66.1h44.5c0-13.5-9-28.4-27.7-28.4-17,0-33.3,16.1-33.3,37.7s15.8,35.7,35,35.7c10.4,0,20.7-5.4,27.1-15.6m-88.7,15.6h1.1l30.8-86.6c2.9-7.8,6.7-10.1,15.8-10.1V10.7H294.4v3.7c7.5,0,12.6.8,12.6,6a12.7,12.7,0,0,1-.8,4.4L286.8,82.2,266.2,22.9a12.9,12.9,0,0,1-1.1-4.7c0-3.3,3.4-3.7,11.6-3.7V10.7H235.6v3.7c8.1,0,9.6.8,12.4,8.5l6.4,17.3L239.5,82.4,217.2,22.9a17.5,17.5,0,0,1-1.3-5.1c0-3.1,2.9-3.4,10.6-3.4V10.7H185v3.7c8.8,0,10.4,1,13.4,8.5l34.4,88.2h1.3l22.8-63.9Z" transform="translate(-3.6 -3.5)"/></svg>