<svg id="Layer_1" xmlns="http://www.w3.org/2000/svg" viewBox="0 0 1024 1024"><style>.st0{display:none}.st1{display:inline}.st2{fill:#fff}</style><title>FT Logo Square BW</title><g class="st0"><path class="st1" d="M-.3 0h1024.7v1024.8H-.3z"/><path class="st1 st2" d="M264.3 165.2V356h56.2c60.8 0 63.9-10 68.5-57.7h17.7v139.3H389c-4.6-47.7-7.7-56.9-68.5-56.9h-56.2V546c0 33.9 9.2 41.5 71.6 41.5v20.8H116.6v-20.8c45.4 0 61.5-2.3 61.5-39.2V202.1c0-36.9-16.2-39.2-61.5-39.2v-20.8h291.6c39.2 0 53.1-1.5 65.4-3.8v143.9h-19.2c-10-100-30-116.9-119.3-116.9h-70.8v-.1zm607.5-23.1c39.2 0 53.1-1.5 65.4-3.8v143.9H918c-10-100-30-116.9-119.2-116.9h-24.6V546c0 36.2 13.9 41.5 71.6 41.5v20.8h-230v-20.8c57.7 0 72.3-5.4 72.3-41.5V165.2h-24.6c-89.2 0-109.3 16.9-119.2 116.9h-19.2V138.3c12.3 2.3 26.2 3.8 65.4 3.8h281.3z"/></g><path d="M-.3 0v1024.8h1024.7V0H-.3zm473.9 282.1h-19.2c-10.1-100-30.1-116.9-119.3-116.9h-70.8V356h56.2c60.8 0 63.9-10 68.5-57.7h17.7v139.2H389c-4.6-47.7-7.7-56.9-68.5-56.9h-56.2V546c0 33.8 9.3 41.5 71.6 41.5v20.8H116.6v-20.8c45.3 0 61.5-2.3 61.5-39.2V202.1c0-36.9-16.1-39.2-61.5-39.2v-20.8h291.6c39.2 0 53.1-1.5 65.4-3.8v143.8zm463.5 0h-19.2c-10-100-30-116.9-119.2-116.9h-24.6V546c0 36.1 13.9 41.5 71.6 41.5v20.8h-230v-20.8c57.7 0 72.3-5.3 72.3-41.5V165.3h-24.7c-89.2 0-109.2 16.9-119.2 116.9h-19.2V138.3c12.3 2.3 26.2 3.8 65.4 3.8h281.5c39.3 0 53.1-1.5 65.3-3.8v143.8z"/></svg>
