<svg width="3000" height="3000" xmlns="http://www.w3.org/2000/svg" xmlns:xlink="http://www.w3.org/1999/xlink"><defs><path d="M2850 .001l.008 2120.122c-70.866-32.21-149.592-50.15-232.508-50.15-310.66 0-562.5 251.84-562.5 562.5 0 77.12 15.52 150.615 43.607 217.533L0 2850.001V.001h2850z" id="a"/></defs><g fill="none" fill-rule="evenodd"><mask id="b" fill="#fff"><use xlink:href="#a"/></mask><use fill="#FCD0B1" fill-rule="nonzero" xlink:href="#a"/><path d="M330 400.552v57.753c125.864 0 170.875 6.387 170.875 108.843v961.257c0 102.457-44.733 108.843-170.875 108.843v57.753h609.315v-57.753c-173.375 0-198.937-21.102-198.937-115.229v-458.971h156.149c168.93 0 177.543 25.545 190.324 157.988h49.179v-386.78h-49.179c-12.78 132.444-21.394 160.21-190.324 160.21h-156.15V464.97h196.715c248.116 0 303.685 46.925 331.47 324.584h53.346V390.001c-34.175 6.386-72.795 10.551-181.71 10.551H330zm2098.29 0h-781.58c-108.916 0-147.536-4.165-181.711-10.55v399.274h53.346c27.507-277.66 83.354-324.584 331.192-324.584h68.35v1057.327c0 100.235-40.566 115.229-200.882 115.229v57.753h639.044v-57.753c-160.317 0-198.937-14.716-198.937-115.229V464.97h68.35c247.838 0 303.407 46.925 331.192 324.584H2610V390.001c-34.175 6.386-72.796 10.551-181.71 10.551z" fill="#333" fill-rule="nonzero" mask="url(#b)"/><circle fill="#CC1452" cx="2625" cy="2625" r="375"/></g></svg>