<svg id="Layer_1" xmlns="http://www.w3.org/2000/svg" viewBox="0 0 1024 1024">
  <style>
    .st0{display:none;} .st1{display:inline;} .st2{fill:#FFFFFF;}
  </style>
  <title>
    brand-fastft
  </title>
  <g class="st0">
    <rect x="-.3" class="st1" width="1024.7" height="1024.8"/>
    <g class="st1">
      <path class="st2" d="M264.3 165.2V356h56.2c60.8 0 63.9-10 68.5-57.7h17.7v139.3H389c-4.6-47.7-7.7-56.9-68.5-56.9h-56.2V546c0 33.9 9.2 41.5 71.6 41.5v20.8H116.6v-20.8c45.4 0 61.5-2.3 61.5-39.2V202.1c0-36.9-16.2-39.2-61.5-39.2v-20.8h291.6c39.2 0 53.1-1.5 65.4-3.8v143.9h-19.2c-10-100-30-116.9-119.3-116.9H264.3zM871.8 142.1c39.2 0 53.1-1.5 65.4-3.8v143.9H918c-10-100-30-116.9-119.2-116.9h-24.6V546c0 36.2 13.9 41.5 71.6 41.5v20.8h-230v-20.8c57.7 0 72.3-5.4 72.3-41.5V165.2h-24.6c-89.2 0-109.3 16.9-119.2 116.9h-19.2V138.3c12.3 2.3 26.2 3.8 65.4 3.8H871.8z"/>
    </g>
  </g>
  <rect x="-.3" width="1024.7" height="1024.8"/>
  <path class="st2" d="M116.6,142.1v20.8c45.4,0,61.5,2.3,61.5,39.2v346.2c0,36.9-16.2,39.2-61.5,39.2v20.8h219.3v-20.8	c-62.3,0-71.6-7.7-71.6-41.5V380.6h56.2c60.8,0,63.9,9.2,68.5,56.9h17.7V298.3H389c-4.6,47.7-7.7,57.7-68.5,57.7h-56.2V165.2h70.8	c89.2,0,109.2,16.9,119.3,116.9h19.2V138.3c-12.3,2.3-26.2,3.8-65.4,3.8H116.6z M871.8,142.1H590.3c-39.2,0-53.1-1.5-65.4-3.8v143.9	h19.2c10-100,30-116.9,119.2-116.9H688V546c0,36.2-14.6,41.5-72.3,41.5v20.8h230v-20.8c-57.7,0-71.6-5.4-71.6-41.5V165.2h24.6	c89.2,0,109.2,16.9,119.2,116.9h19.2V138.3C924.9,140.6,911.1,142.1,871.8,142.1z"/>
</svg>
