<svg width="187" height="104" viewBox="0 0 187 104" xmlns="http://www.w3.org/2000/svg"><title>brand-ft</title><path d="M34 87.103c0 10.826 2.863 11.99 15.21 12.526v3.937H.18v-3.937c10.2-.447 13.063-1.7 13.063-12.526V16.508c0-10.826-2.863-11.99-12.795-12.526V.045H86.88l.626 22.816h-4.294C79.542 11.318 75.605 7.65 55.384 7.65H39.726c-4.742 0-5.815 1.074-5.815 5.279v32.747h7.694c16.106 0 19.595-2.863 21.653-13.69h3.937v36.506h-3.937c-2.147-12.168-8.232-15.21-21.653-15.21h-7.694v33.82H34zM184.763.045H94.126L91.98 22.86h5.19c3.31-11.185 8.231-15.211 19.147-15.211h12.795v79.453c0 10.826-2.864 11.99-14.585 12.526v3.937h49.927v-3.937c-11.721-.447-14.585-1.7-14.585-12.526V7.65h12.795c10.916 0 15.837 4.026 19.148 15.21H187L184.763.046z" fill="#000" fill-rule="evenodd"/></svg>