<svg width="187" height="108" viewBox="0 0 187 108" xmlns="http://www.w3.org/2000/svg"><title>FT-Logotype (1)</title><g fill="#000" fill-rule="evenodd"><path d="M33.553 50.543H46.27c13.785 0 14.533-2.244 15.601-13.143h4.06v31.63h-4.06c-1.068-10.793-1.71-12.93-15.6-12.93H33.552v37.614c0 7.693 2.137 9.403 16.242 9.403v4.702H0v-4.702c10.365 0 13.998-.534 13.998-8.869V15.494c0-8.441-3.633-8.869-13.998-8.869V1.923h66.251c8.87 0 12.075-.32 14.854-.854v32.698h-4.382C74.48 11.007 69.885 7.159 49.582 7.159H33.553v43.384zM171.72 1.817c8.869 0 12.074-.321 14.853-.855V33.66h-4.382c-2.244-22.76-6.838-26.607-27.141-26.607h-5.557v86.554c0 8.228 3.099 9.403 16.242 9.403v4.702h-52.253v-4.702c13.144 0 16.456-1.175 16.456-9.403V7.053h-5.556c-20.303 0-24.791 3.846-27.142 26.607h-4.381V.962c2.778.534 5.984.855 14.853.855h64.007z"/></g></svg>
