<svg version="1.1" id="Layer_1" xmlns="http://www.w3.org/2000/svg" x="0" y="0" viewBox="0 0 982.25 283.03" xml:space="preserve"><style>.st1{fill:#333}.st2{fill:#fff}</style><path fill="#fcd0b1" d="M0 0h282.99v283.03H0z"/><path class="st1" d="M73.1 45.62v52.69h15.51c16.79 0 17.64-2.76 18.91-15.94h4.89v38.46h-4.89c-1.27-13.17-2.12-15.72-18.91-15.72H73.1v45.68c0 9.35 2.55 11.47 19.76 11.47V168H32.3v-5.74c12.54 0 17-.64 17-10.83V55.82c0-10.2-4.46-10.84-17-10.84v-5.74h80.53c10.84 0 14.66-.42 18.06-1.06v39.73h-5.31c-2.76-27.62-8.29-32.3-32.93-32.3H73.1zM240.88 39.25c10.84 0 14.66-.42 18.06-1.06v39.73h-5.31c-2.76-27.62-8.29-32.3-32.93-32.3h-6.8V150.8c0 9.99 3.83 11.47 19.76 11.47v5.74h-63.53v-5.74c15.93 0 19.97-1.49 19.97-11.47V45.62h-6.8c-24.65 0-30.17 4.67-32.93 32.3h-5.31V38.19c3.4.64 7.22 1.06 18.06 1.06h77.76z"/><g><path class="st2" d="M360.26 109.74c0 5.91 1.61 7.25 12.49 7.25v3.63h-37.47v-3.63c7.39 0 9.94-.67 9.94-7.12V49.99c0-6.45-2.55-7.12-9.94-7.12v-3.63h51.43c6.85 0 9.27-.27 11.41-.67l.4 22.96h-3.09c-1.75-16.79-5.91-18.26-21.49-18.26h-13.7v33.3h11.15c10.61 0 11.28-1.75 12.09-10.07h2.95v24.31h-2.95c-.81-8.33-1.48-9.94-12.09-9.94h-11.15v28.87zM406.05 120.62v-3.63c7.39 0 9.94-.67 9.94-7.12V49.99c0-6.45-2.55-7.12-9.94-7.12v-3.63h34.91v3.63c-7.39 0-9.94.67-9.94 7.12v59.89c0 6.45 2.55 7.12 9.94 7.12v3.63h-34.91zM520.19 121.96L464.6 52.94v56.53c0 6.58 4.57 7.52 12.22 7.52v3.63h-29.54v-3.63c7.65 0 11.95-.94 11.95-7.52V46.76c-3.63-3.63-6.18-3.89-11.95-3.89v-3.63h26.19l42.7 54.92V50.39c0-6.58-4.57-7.52-12.22-7.52v-3.63h29.54v3.63c-7.65 0-11.95.94-11.95 7.52v71.57h-1.35zM560.07 120.62h-29.41v-3.63c7.79 0 11.28-1.07 13.7-7.65l26.59-70.77h7.39l28.6 71.3c2.55 6.31 3.76 7.12 9.53 7.12v3.63h-34.11v-3.63c10.47 0 11.41-.8 8.86-7.12l-8.46-21.62h-25.51l-7.52 20.95c-2.42 6.45 1.34 7.79 10.34 7.79v3.63zm-1.21-36.79h22.16l-11.55-29.14-10.61 29.14zM693.01 121.96l-55.59-69.02v56.53c0 6.58 4.57 7.52 12.22 7.52v3.63h-28.87v-3.63c7.12 0 11.28-.94 11.28-7.52V46.9c-4.03-3.76-7.12-4.03-13.7-4.03v-3.63h27.93l42.7 54.92V50.39c0-6.58-4.57-7.52-12.22-7.52v-3.63h29.54v3.63c-7.65 0-11.95.94-11.95 7.52v71.57h-1.34zM775.46 39.11h2.01l1.21 24.31-3.09.13c-2.01-13.97-9.4-21.22-22.96-21.22-15.04 0-26.59 12.89-26.59 32.76 0 25.38 15.98 39.75 32.77 39.75 7.25 0 13.83-2.01 20.14-8.86l2.28 2.42c-5.24 7.39-15.44 13.56-29.27 13.56-20.55 0-41.36-15.44-41.36-41.36 0-24.98 18.93-42.7 41.9-42.7 10.88 0 16.65 4.7 19.61 4.7 1.6 0 2.54-1.21 3.35-3.49zM787.94 120.62v-3.63c7.39 0 9.94-.67 9.94-7.12V49.99c0-6.45-2.55-7.12-9.94-7.12v-3.63h34.91v3.63c-7.39 0-9.94.67-9.94 7.12v59.89c0 6.45 2.55 7.12 9.94 7.12v3.63h-34.91zM855.89 120.62H828.5v-3.63c6.04 0 9.27-1.07 11.68-7.65l26.59-70.77h7.39l28.6 71.3c2.55 6.31 3.76 7.12 9.53 7.12v3.63h-34.11v-3.63c10.47 0 11.41-.8 8.86-7.12l-8.46-21.62h-25.52l-7.52 20.95c-2.42 6.45 1.34 7.79 10.34 7.79v3.63zm-1.21-36.79h22.16l-11.55-29.14-10.61 29.14zM917.93 120.62v-3.63c7.39 0 9.94-.67 9.94-7.12V49.99c0-6.45-2.55-7.12-9.94-7.12v-3.63h34.78v3.63c-7.39 0-9.8.67-9.8 7.12v60.43c0 5.37 2.68 6.04 7.12 6.04h4.16c15.71 0 20.81-2.28 25.11-20.28l2.96.4-2.55 24.04h-61.78z"/></g><g><path class="st2" d="M408.99 161.61l.4 24.31h-3.09c-1.74-17.46-5.91-19.61-21.48-19.61h-4.97v66.47c0 6.31 2.42 7.25 12.49 7.25v3.63h-40.15v-3.63c10.07 0 12.62-.94 12.62-7.25v-66.47h-4.97c-15.58 0-19.74 2.15-21.49 19.61h-3.09l.4-24.31c2.15.4 4.57.67 11.42.67h50.49c6.85 0 9.27-.27 11.42-.67zM416.91 243.66v-3.63c7.39 0 9.94-.67 9.94-7.12v-59.89c0-6.45-2.55-7.12-9.94-7.12v-3.63h34.91v3.63c-7.39 0-9.94.67-9.94 7.12v59.89c0 6.45 2.55 7.12 9.94 7.12v3.63h-34.91zM556.84 162.28v3.63c-7.39 0-10.61.4-9.94 6.85l6.31 60.43c.67 6.18 3.09 6.85 10.34 6.85v3.63h-34.78v-3.63c7.25 0 9.8-.67 9.26-6.85l-6.58-63.52L505.81 245h-1.08l-24.84-75.33-6.18 63.38c-.67 6.45 3.76 6.98 11.15 6.98v3.63h-27.13v-3.63c7.38 0 9.94-1.21 10.47-6.98l6.18-60.29c.67-6.45-2.55-6.85-9.94-6.85v-3.63h28.6l17.19 55.59 18.53-55.59h28.08zM621.83 213.85h-2.96c-.8-8.33-1.48-9.94-12.08-9.94h-12.36v29.54c0 5.37 2.69 6.04 7.12 6.04h6.71c15.71 0 20.81-2.28 25.11-20.28l2.95.4-2.82 24.04h-64.05v-3.63c7.39 0 9.94-.67 9.94-7.12v-59.89c0-6.45-2.55-7.12-9.94-7.12v-3.63h61.5l.27 20.28h-3.09c-1.88-14.37-5.51-16.11-21.62-16.11h-12.09v33.17h12.36c10.61 0 11.28-1.75 12.08-10.07h2.96v24.32zM686.55 226.87c0-7.39-4.7-11.15-12.76-15.58l-12.89-6.71c-9.67-5.24-15.44-10.88-15.44-21.08 0-12.76 10.87-22.56 25.11-22.56 9.8 0 14.77 4.7 17.59 4.7 1.88 0 2.68-1.21 3.49-3.49h2.28l1.21 22.83-2.95.13c-1.61-11.01-9.53-19.61-20.68-19.61-8.33 0-13.97 4.97-13.97 12.09 0 7.79 5.91 10.88 12.36 14.5l11.14 5.91c10.47 5.64 17.86 11.41 17.86 22.29 0 14.37-12.35 24.71-27.93 24.71-10.88 0-16.25-5.24-19.2-5.24-1.88 0-2.82 1.61-3.63 4.16h-2.29l-1.61-24.31 2.95-.4c2.28 15.04 12.76 21.35 23.23 21.35 8.74.01 16.13-3.88 16.13-13.69z"/></g></svg>