<svg version="1.1" id="Layer_1" xmlns="http://www.w3.org/2000/svg" x="0" y="0" viewBox="0 0 982.3 283" xml:space="preserve"><style>.st1{fill:#333}</style><path fill="#fcd0b1" d="M0 0h283v283H0z"/><path class="st1" d="M73.1 45.6v52.7h15.5c16.8 0 17.6-2.8 18.9-15.9h4.9v38.5h-4.9c-1.3-13.2-2.1-15.7-18.9-15.7H73.1v45.7c0 9.3 2.6 11.5 19.8 11.5v5.7H32.3v-5.7c12.5 0 17-.6 17-10.8V55.8c0-10.2-4.5-10.8-17-10.8v-5.7h80.5c10.8 0 14.7-.4 18.1-1.1v39.7h-5.3c-2.8-27.6-8.3-32.3-32.9-32.3H73.1zM240.9 39.2c10.8 0 14.7-.4 18.1-1.1v39.7h-5.3c-2.8-27.6-8.3-32.3-32.9-32.3H214v105.2c0 10 3.8 11.5 19.8 11.5v5.7h-63.5v-5.7c15.9 0 20-1.5 20-11.5V45.6h-6.8c-24.6 0-30.2 4.7-32.9 32.3H145V38.2c3.4.6 7.2 1.1 18.1 1.1h77.8z"/><g><path class="st1" d="M360.3 109.7c0 5.9 1.6 7.3 12.5 7.3v3.6h-37.5V117c7.4 0 9.9-.7 9.9-7.1V50c0-6.4-2.6-7.1-9.9-7.1v-3.6h51.4c6.8 0 9.3-.3 11.4-.7l.4 23h-3.1c-1.7-16.8-5.9-18.3-21.5-18.3h-13.7v33.3h11.1c10.6 0 11.3-1.7 12.1-10.1h3v24.3h-3c-.8-8.3-1.5-9.9-12.1-9.9h-11.1v28.8zM406 120.6V117c7.4 0 9.9-.7 9.9-7.1V50c0-6.4-2.6-7.1-9.9-7.1v-3.6h35v3.6c-7.4 0-9.9.7-9.9 7.1v59.9c0 6.4 2.6 7.1 9.9 7.1v3.6h-35zM520.2 122l-55.6-69v56.5c0 6.6 4.6 7.5 12.2 7.5v3.6h-29.5V117c7.7 0 12-.9 12-7.5V46.8c-3.6-3.6-6.2-3.9-12-3.9v-3.6h26.2l42.7 54.9V50.4c0-6.6-4.6-7.5-12.2-7.5v-3.6h29.5v3.6c-7.7 0-12 .9-12 7.5V122h-1.3zM560.1 120.6h-29.4V117c7.8 0 11.3-1.1 13.7-7.7L571 38.5h7.4l28.6 71.3c2.6 6.3 3.8 7.1 9.5 7.1v3.6h-34.1V117c10.5 0 11.4-.8 8.9-7.1l-8.5-21.6h-25.5l-7.5 20.9c-2.4 6.4 1.3 7.8 10.3 7.8v3.6zm-1.2-36.8H581l-11.5-29.1-10.6 29.1zM693 122l-55.6-69v56.5c0 6.6 4.6 7.5 12.2 7.5v3.6h-28.9V117c7.1 0 11.3-.9 11.3-7.5V46.9c-4-3.8-7.1-4-13.7-4v-3.6h27.9L689 94.2V50.4c0-6.6-4.6-7.5-12.2-7.5v-3.6h29.5v3.6c-7.7 0-12 .9-12 7.5V122H693zM775.5 39.1h2l1.2 24.3-3.1.1c-2-14-9.4-21.2-23-21.2-15 0-26.6 12.9-26.6 32.8 0 25.4 16 39.7 32.8 39.7 7.3 0 13.8-2 20.1-8.9l2.3 2.4C776 115.8 765.8 122 752 122c-20.5 0-41.4-15.4-41.4-41.4 0-25 18.9-42.7 41.9-42.7 10.9 0 16.7 4.7 19.6 4.7 1.6 0 2.6-1.2 3.4-3.5zM787.9 120.6V117c7.4 0 9.9-.7 9.9-7.1V50c0-6.4-2.6-7.1-9.9-7.1v-3.6h34.9v3.6c-7.4 0-9.9.7-9.9 7.1v59.9c0 6.4 2.6 7.1 9.9 7.1v3.6h-34.9zM855.9 120.6h-27.4V117c6 0 9.3-1.1 11.7-7.7l26.6-70.8h7.4l28.6 71.3c2.6 6.3 3.8 7.1 9.5 7.1v3.6h-34.1V117c10.5 0 11.4-.8 8.9-7.1l-8.5-21.6h-25.5l-7.5 20.9c-2.4 6.4 1.3 7.8 10.3 7.8v3.6zm-1.2-36.8h22.2l-11.5-29.1-10.7 29.1zM917.9 120.6V117c7.4 0 9.9-.7 9.9-7.1V50c0-6.4-2.6-7.1-9.9-7.1v-3.6h34.8v3.6c-7.4 0-9.8.7-9.8 7.1v60.4c0 5.4 2.7 6 7.1 6h4.2c15.7 0 20.8-2.3 25.1-20.3l3 .4-2.6 24h-61.8z"/></g><g><path class="st1" d="M409 161.6l.4 24.3h-3.1c-1.7-17.5-5.9-19.6-21.5-19.6h-5v66.5c0 6.3 2.4 7.3 12.5 7.3v3.6h-40.2V240c10.1 0 12.6-.9 12.6-7.3v-66.5h-5c-15.6 0-19.7 2.1-21.5 19.6h-3.1l.4-24.3c2.1.4 4.6.7 11.4.7h50.5c7 .1 9.4-.2 11.6-.6zM416.9 243.7V240c7.4 0 9.9-.7 9.9-7.1V173c0-6.4-2.6-7.1-9.9-7.1v-3.6h34.9v3.6c-7.4 0-9.9.7-9.9 7.1v59.9c0 6.4 2.6 7.1 9.9 7.1v3.6h-34.9zM556.8 162.3v3.6c-7.4 0-10.6.4-9.9 6.8l6.3 60.4c.7 6.2 3.1 6.8 10.3 6.8v3.6h-34.8V240c7.3 0 9.8-.7 9.3-6.8l-6.6-63.5-25.6 75.3h-1.1l-24.8-75.3-6.2 63.4c-.7 6.4 3.8 7 11.1 7v3.6h-27.1V240c7.4 0 9.9-1.2 10.5-7l6.2-60.3c.7-6.4-2.6-6.8-9.9-6.8v-3.6H493l17.2 55.6 18.5-55.6h28.1zM621.8 213.8h-3c-.8-8.3-1.5-9.9-12.1-9.9h-12.4v29.5c0 5.4 2.7 6 7.1 6h6.7c15.7 0 20.8-2.3 25.1-20.3l3 .4-2.8 24h-64.1V240c7.4 0 9.9-.7 9.9-7.1V173c0-6.4-2.6-7.1-9.9-7.1v-3.6H631l.3 20.3h-3.1c-1.9-14.4-5.5-16.1-21.6-16.1h-12.1v33.2h12.4c10.6 0 11.3-1.7 12.1-10.1h3v24.2zM686.5 226.9c0-7.4-4.7-11.1-12.8-15.6l-12.9-6.7c-9.7-5.2-15.4-10.9-15.4-21.1 0-12.8 10.9-22.6 25.1-22.6 9.8 0 14.8 4.7 17.6 4.7 1.9 0 2.7-1.2 3.5-3.5h2.3l1.2 22.8-3 .1c-1.6-11-9.5-19.6-20.7-19.6-8.3 0-14 5-14 12.1 0 7.8 5.9 10.9 12.4 14.5l11.2 6c10.5 5.6 17.9 11.4 17.9 22.3 0 14.4-12.4 24.7-27.9 24.7-10.9 0-16.2-5.2-19.2-5.2-1.9 0-2.8 1.6-3.6 4.2h-2.3l-1.6-24.3 3-.4c2.3 15 12.8 21.4 23.2 21.4 8.7-.1 16-4 16-13.8z"/></g></svg>