<svg width="1024" height="1024" viewBox="0 0 1024 1024" xmlns="http://www.w3.org/2000/svg"><title>Group</title><path d="M0 .202h1023.967v1023.766H0V.202zm257.09 197.831v181.854h53.95c58.385 0 61.338-9.53 65.772-54.996h17v132.722h-17c-4.434-45.463-7.392-54.262-65.772-54.262h-53.95v157.655c0 32.264 8.868 39.589 68.73 39.589v19.803H115.196v-19.803c43.606 0 59.12-2.186 59.12-37.393V233.227c0-35.194-15.514-37.394-59.12-37.394v-19.798H395.29c37.69 0 50.993-1.465 62.814-3.67v137.127h-18.472c-9.61-95.33-28.827-111.459-114.548-111.459H257.09zm589.326-22.003c37.695 0 50.997-1.46 62.819-3.66v137.117h-18.482c-9.609-95.324-28.817-111.458-114.543-111.458h-23.652v362.977c0 34.468 13.307 39.598 68.73 39.598v19.794H600.325v-19.794c55.418 0 69.466-5.13 69.466-39.598V198.024h-23.652c-85.72 0-104.938 16.134-114.543 111.459h-18.472V172.365c11.821 2.2 25.123 3.66 62.814 3.66h270.478v.005z" fill-rule="evenodd"/></svg>