<svg xmlns="http://www.w3.org/2000/svg" viewBox="0 0 40.911 40.911"><path d="M5.866 10.106l7.068 2.377c.582.255 3.346 1.266 8.247.051 6.191-1.536 19.595-4.196 19.73-4.224l-.499-2.519-.089.018-12.775-1.801c-1.405-.198-3.673-.14-5.066.131L5.403 7.452C3.181 7.337 1.068 8.702.36 10.915a4.985 4.985 0 0 0 .32 3.827 5.034 5.034 0 0 0 1.253 1.559 4.995 4.995 0 0 0-1.692 2.422 4.997 4.997 0 0 0 .32 3.828 4.988 4.988 0 0 0 1.347 1.622A5.006 5.006 0 0 0 .56 30.405a4.988 4.988 0 0 0 2.932 2.479l12.313 3.937c.676.216 1.784.264 2.476.104l21.615-4.952-.287-1.251a1.284 1.284 0 0 0-1.539-.965l-19.678 4.506c-.691.159-1.799.111-2.476-.104L4.275 30.438a2.431 2.431 0 0 1-1.431-1.21 2.423 2.423 0 0 1-.156-1.866 2.46 2.46 0 0 1 3.079-1.589c.003-.012 7.123 2.263 10.039 3.192.676.216 1.784.264 2.476.104l21.615-4.951-.287-1.252a1.284 1.284 0 0 0-1.539-.965l-19.678 4.507c-.691.158-1.799.11-2.476-.104L4.275 22.582a2.431 2.431 0 0 1-1.431-1.21 2.423 2.423 0 0 1-.156-1.866 2.458 2.458 0 0 1 3.079-1.589c.001-.004 7.219 2.303 10.158 3.241.675.216 1.784.264 2.475.104l21.615-4.952-.287-1.252a1.284 1.284 0 0 0-1.539-.964l-19.678 4.505c-.691.16-1.799.112-2.476-.104L4.393 14.774a2.433 2.433 0 0 1-1.431-1.211 2.423 2.423 0 0 1-.156-1.866c.411-1.285 1.791-2.001 3.06-1.591z" fill="#333"/></svg>