<svg id="NEW_logo" xmlns="http://www.w3.org/2000/svg" viewBox="0 0 284.3 395"><style>.st0{fill:#fff}.st2,.st3{display:inline;opacity:.7;fill:#9ecf7c}.st3{opacity:.4;fill:#d40e8c}</style><path class="st0" d="M.2 0h283.5v283.5H.2z"/><path d="M73.5 45.7v52.8H89c16.8 0 17.7-2.8 18.9-16h4.9V121h-4.9c-1.3-13.2-2.1-15.8-18.9-15.8H73.5V151c0 9.4 2.6 11.5 19.8 11.5v5.7H32.6v-5.7c12.6 0 17-.6 17-10.9V55.9c0-10.2-4.5-10.9-17-10.9v-5.7h80.7c10.9 0 14.7-.4 18.1-1.1V78H126c-2.8-27.7-8.3-32.4-33-32.4H73.5zM241.5 39.3c10.9 0 14.7-.4 18.1-1.1V78h-5.3c-2.8-27.7-8.3-32.4-33-32.4h-6.8V151c0 10 3.8 11.5 19.8 11.5v5.7h-63.6v-5.7c16 0 20-1.5 20-11.5V45.7h-6.8c-24.7 0-30.2 4.7-33 32.4h-5.3V38.3c3.4.6 7.2 1.1 18.1 1.1h77.8z"/><path class="st0" d="M11 334.2c0 2.6.7 3.2 5.5 3.2v1.6H0v-1.6c3.2 0 4.4-.3 4.4-3.1V308c0-2.8-1.1-3.1-4.4-3.1v-1.6h22.6c3 0 4.1-.1 5-.3l.2 10.1h-1.4c-.8-7.4-2.6-8-9.4-8h-6v14.6h4.9c4.7 0 5-.8 5.3-4.4h1.3V326h-1.3c-.4-3.7-.6-4.4-5.3-4.4H11v12.6zM31.1 339v-1.6c3.2 0 4.4-.3 4.4-3.1V308c0-2.8-1.1-3.1-4.4-3.1v-1.6h15.3v1.6c-3.2 0-4.4.3-4.4 3.1v26.3c0 2.8 1.1 3.1 4.4 3.1v1.6H31.1zM81.2 339.6l-24.4-30.3v24.8c0 2.9 2 3.3 5.4 3.3v1.6h-13v-1.6c3.4 0 5.3-.4 5.3-3.3v-27.6c-1.6-1.6-2.7-1.7-5.3-1.7v-1.6h11.5l18.8 24.1v-19.2c0-2.9-2-3.3-5.4-3.3v-1.6h13v1.6c-3.4 0-5.3.4-5.3 3.3v31.4h-.6zM98.8 339h-13v-1.6c3.4 0 5-.5 6-3.4l11.7-31.1h3.2l12.6 31.3c1.1 2.8 1.7 3.1 4.2 3.1v1.6h-15v-1.6c4.6 0 5-.4 3.9-3.1l-3.7-9.5H97.5l-3.3 9.2c-1.1 2.8.6 3.4 4.5 3.4v1.7zm-.6-16.2h9.7l-5.1-12.8-4.6 12.8zM157.2 339.6l-24.4-30.3v24.8c0 2.9 2 3.3 5.4 3.3v1.6h-12.7v-1.6c3.1 0 5-.4 5-3.3v-27.5c-1.8-1.7-3.1-1.8-6-1.8v-1.6h12.3l18.8 24.1v-19.2c0-2.9-2-3.3-5.4-3.3v-1.6h13v1.6c-3.4 0-5.3.4-5.3 3.3v31.4h-.7zM193.4 303.1h.9l.5 10.7-1.4.1c-.9-6.1-4.1-9.3-10.1-9.3-6.6 0-11.7 5.7-11.7 14.4 0 11.2 7 17.5 14.4 17.5 3.2 0 6.1-.9 8.9-3.9l1 1.1c-2.3 3.2-6.8 6-12.9 6-9 0-18.2-6.8-18.2-18.2 0-11 8.3-18.8 18.4-18.8 4.8 0 7.3 2.1 8.6 2.1.8-.1 1.3-.7 1.6-1.7zM198.9 339v-1.6c3.2 0 4.4-.3 4.4-3.1V308c0-2.8-1.1-3.1-4.4-3.1v-1.6h15.3v1.6c-3.2 0-4.4.3-4.4 3.1v26.3c0 2.8 1.1 3.1 4.4 3.1v1.6h-15.3zM228.7 339h-12v-1.6c2.7 0 4.1-.5 5.1-3.4l11.7-31.1h3.2l12.6 31.3c1.1 2.8 1.7 3.1 4.2 3.1v1.6h-15v-1.6c4.6 0 5-.4 3.9-3.1l-3.7-9.5h-11.2l-3.3 9.2c-1.1 2.8.6 3.4 4.5 3.4v1.7zm-.5-16.2h9.7l-5.1-12.8-4.6 12.8zM256 339v-1.6c3.2 0 4.4-.3 4.4-3.1V308c0-2.8-1.1-3.1-4.4-3.1v-1.6h15.3v1.6c-3.2 0-4.3.3-4.3 3.1v26.6c0 2.4 1.2 2.7 3.1 2.7h1.8c6.9 0 9.1-1 11-8.9l1.3.2-1.1 10.6H256z"/><g><path class="st0" d="M32.4 358.3l.2 10.7h-1.4c-.8-7.7-2.6-8.6-9.4-8.6h-2.2v29.2c0 2.8 1.1 3.2 5.5 3.2v1.6H7.5v-1.6c4.4 0 5.5-.4 5.5-3.2v-29.2h-2.2c-6.8 0-8.7.9-9.4 8.6H0l.2-10.7c.9.2 2 .3 5 .3h22.2c3 0 4.1-.1 5-.3zM35.9 394.4v-1.6c3.2 0 4.4-.3 4.4-3.1v-26.3c0-2.8-1.1-3.1-4.4-3.1v-1.6h15.3v1.6c-3.2 0-4.4.3-4.4 3.1v26.3c0 2.8 1.1 3.1 4.4 3.1v1.6H35.9zM97.4 358.6v1.6c-3.2 0-4.7.2-4.4 3l2.8 26.6c.3 2.7 1.4 3 4.5 3v1.6H85.1v-1.6c3.2 0 4.3-.3 4.1-3l-2.9-27.9L75 395h-.5l-10.9-33.1-2.7 27.8c-.3 2.8 1.7 3.1 4.9 3.1v1.6h-12v-1.6c3.2 0 4.4-.5 4.6-3.1l2.7-26.5c.3-2.8-1.1-3-4.4-3v-1.6h12.6l7.6 24.4 8.1-24.4h12.4zM126 381.3h-1.3c-.4-3.7-.6-4.4-5.3-4.4H114v13c0 2.4 1.2 2.7 3.1 2.7h3c6.9 0 9.1-1 11-8.9l1.3.2-1.2 10.6h-28.1v-1.6c3.2 0 4.4-.3 4.4-3.1v-26.3c0-2.8-1.1-3.1-4.4-3.1v-1.6h27l.1 8.9h-1.4c-.8-6.3-2.4-7.1-9.5-7.1H114V375h5.4c4.7 0 5-.8 5.3-4.4h1.3v10.7zM154.4 387c0-3.2-2.1-4.9-5.6-6.8l-5.7-3c-4.2-2.3-6.8-4.8-6.8-9.3 0-5.6 4.8-9.9 11-9.9 4.3 0 6.5 2.1 7.7 2.1.8 0 1.2-.5 1.5-1.5h1l.5 10-1.3.1c-.7-4.8-4.2-8.6-9.1-8.6-3.7 0-6.1 2.2-6.1 5.3 0 3.4 2.6 4.8 5.4 6.4l4.9 2.6c4.6 2.5 7.8 5 7.8 9.8 0 6.3-5.4 10.9-12.3 10.9-4.8 0-7.1-2.3-8.4-2.3-.8 0-1.2.7-1.6 1.8h-1l-.7-10.7 1.3-.2c1 6.6 5.6 9.4 10.2 9.4 4-.1 7.3-1.8 7.3-6.1z"/></g></svg>