<svg id="Layer_1" data-name="Layer 1" xmlns="http://www.w3.org/2000/svg" viewBox="0 0 326.83 50.9"><defs><style>.cls-1{fill:#fff}</style></defs><path class="cls-1" d="M24.78 7.06l-4.53 16.91-5.58-16.91H6.99L0 33.15h6.38l4.85-18.12 5.95 18.12H24.16l6.99-26.09h-6.37zM115.74 7.06l-6.99 26.09h6.37l6.99-26.09h-6.37zM34.96 7.06l-6.99 26.09h6.37l7-26.09h-6.38zM106.29 22.43l1.3-4.85H96.74l1.4-5.22h12.16l1.42-5.3H93.19l-6.84 25.5-5.03-13.43h-1.98L91.28 7.06h-7.53L72.62 18.13l2.97-11.07h-6.37l-6.88 25.65-5.08-13.58h-1.98L67.21 7.06h-7.52L48.56 18.13l2.96-11.07h-6.37l-6.99 26.09h6.37l3.76-14.02h2.25l4.59 14.02H68.59l3.76-14.02h2.26l4.58 14.02h25.72l1.41-5.3H93.98l1.46-5.42h10.85zM150.16 0h50.9v50.9h-50.9z"/><path d="M163.31 8.21v9.47h2.79c3 0 3.17-.49 3.4-2.86h.88v6.91h-.88c-.23-2.37-.38-2.82-3.4-2.82h-2.79v8.21c0 1.68.46 2.07 3.55 2.07v1H156v-1c2.26 0 3.06-.12 3.06-2V10c0-1.83-.8-1.95-3.06-1.95v-1h14.49a16.93 16.93 0 003.24-.19V14h-.95c-.5-5-1.49-5.8-5.92-5.8zM193.49 7.06a16.93 16.93 0 003.24-.19V14h-.95c-.5-5-1.49-5.8-5.92-5.8h-1.23v18.92c0 1.8.69 2.07 3.56 2.07v1h-11.43v-1c2.87 0 3.59-.27 3.59-2.07V8.21h-1.22c-4.43 0-5.43.84-5.92 5.8h-1V6.87a17.07 17.07 0 003.25.19z"/><path class="cls-1" d="M215 19.74c0 1.06.29 1.3 2.24 1.3v.65h-6.73V21c1.32 0 1.78-.12 1.78-1.28V9c0-1.16-.46-1.28-1.78-1.28v-.66h9.25a10.74 10.74 0 002.05-.12l.07 4.13h-.55c-.32-3-1.07-3.29-3.87-3.29H215v6h2c1.91 0 2-.31 2.18-1.81h.53v4.37h-.53c-.15-1.5-.27-1.78-2.18-1.78h-2zM223.19 21.69V21c1.33 0 1.79-.12 1.79-1.28V9c0-1.16-.46-1.28-1.79-1.28v-.66h6.28v.65c-1.33 0-1.78.12-1.78 1.28v10.77c0 1.16.45 1.28 1.78 1.28v.65zM243.72 21.94l-10-12.42v10.17c0 1.18.82 1.35 2.2 1.35v.65h-5.31V21c1.37 0 2.15-.17 2.15-1.35V8.41a2.45 2.45 0 00-2.15-.7v-.65h4.71l7.68 9.88V9.06c0-1.18-.82-1.35-2.2-1.35v-.65h5.31v.65c-1.37 0-2.15.17-2.15 1.35v12.88zM250.89 21.69h-5.28V21c1.4 0 2-.19 2.46-1.37l4.78-12.73h1.33l5.14 12.82C259.78 20.9 260 21 261 21v.65h-6.1V21c1.89 0 2.06-.14 1.6-1.28l-1.5-3.85h-4.59L249 19.64c-.43 1.16.25 1.4 1.86 1.4zm-.21-6.61h4l-2.08-5.24zM274.8 21.94l-10-12.42v10.17c0 1.18.82 1.35 2.19 1.35v.65h-5.19V21c1.28 0 2-.17 2-1.35V8.43a3 3 0 00-2.46-.72v-.65h5l7.68 9.88V9.06c0-1.18-.82-1.35-2.2-1.35v-.65h5.32v.65c-1.38 0-2.15.17-2.15 1.35v12.88zM289.63 7h.37l.21 4.38h-.55c-.37-2.51-1.69-3.82-4.13-3.82-2.71 0-4.79 2.32-4.79 5.9 0 4.56 2.88 7.15 5.9 7.15a4.58 4.58 0 003.62-1.6l.41.44a6.35 6.35 0 01-5.26 2.44A7.34 7.34 0 01278 14.5a7.46 7.46 0 017.53-7.68c2 0 3 .84 3.53.84.26 0 .43-.22.57-.66zM291.88 21.69V21c1.33 0 1.79-.12 1.79-1.28V9c0-1.16-.46-1.28-1.79-1.28v-.66h6.28v.65c-1.33 0-1.79.12-1.79 1.28v10.77c0 1.16.46 1.28 1.79 1.28v.65zM304.1 21.69h-4.93V21c1.09 0 1.67-.19 2.1-1.37l4.79-12.73h1.32l5.15 12.82c.46 1.14.67 1.28 1.71 1.28v.65h-6.13V21c1.88 0 2.05-.14 1.59-1.28l-1.52-3.89h-4.59l-1.35 3.77c-.44 1.16.24 1.4 1.86 1.4zm-.22-6.61h4l-2.08-5.24zM315.26 21.69V21c1.32 0 1.78-.12 1.78-1.28V9c0-1.16-.46-1.28-1.78-1.28v-.66h6.25v.65c-1.33 0-1.76.12-1.76 1.28v10.87c0 1 .48 1.09 1.28 1.09h.75c2.82 0 3.74-.42 4.51-3.65l.54.07-.46 4.32zM223.72 29.07l.07 4.37h-.55c-.32-3.14-1.06-3.53-3.87-3.53h-.89v12c0 1.13.44 1.3 2.25 1.3v.65h-7.22v-.65c1.81 0 2.27-.17 2.27-1.3v-12h-.9c-2.8 0-3.55.39-3.86 3.53h-.56l.07-4.37a10.88 10.88 0 002.06.12h9.08a10.67 10.67 0 002.05-.12zM225.15 43.82v-.65c1.33 0 1.78-.12 1.78-1.28V31.12c0-1.16-.45-1.28-1.78-1.28v-.65h6.28v.65c-1.33 0-1.79.12-1.79 1.28v10.77c0 1.16.46 1.28 1.79 1.28v.65zM250.31 29.19v.65c-1.33 0-1.91.07-1.78 1.23l1.13 10.87c.12 1.11.56 1.23 1.86 1.23v.65h-6.26v-.65c1.31 0 1.77-.12 1.67-1.23l-1.18-11.42-4.61 13.54h-.2l-4.47-13.54-1.11 11.4c-.12 1.15.68 1.25 2 1.25v.65h-4.88v-.65c1.33 0 1.79-.22 1.88-1.25l1.11-10.85c.12-1.16-.46-1.23-1.78-1.23v-.65h5.14l3.09 10 3.33-10zM262 38.46h-.53c-.14-1.5-.27-1.79-2.17-1.79h-2.23V42c0 1 .49 1.08 1.28 1.08h1.21c2.83 0 3.75-.41 4.52-3.64l.53.07-.51 4.32h-11.52v-.65c1.33 0 1.79-.12 1.79-1.28V31.12c0-1.16-.46-1.28-1.79-1.28v-.65h11.06l.05 3.64h-.55c-.34-2.58-1-2.89-3.89-2.89h-2.18v6h2.23c1.9 0 2-.31 2.17-1.81h.53zM273.64 40.8c0-1.32-.84-2-2.29-2.8L269 36.8c-1.74-.95-2.78-2-2.78-3.8a4.23 4.23 0 014.55-4c1.76 0 2.65.84 3.16.84.34 0 .48-.22.63-.63h.44l.22 4.11h-.53a3.83 3.83 0 00-3.72-3.52 2.25 2.25 0 00-2.52 2.17c0 1.4 1.07 2 2.23 2.61l2 1.06c1.89 1 3.21 2 3.21 4 0 2.58-2.22 4.44-5 4.44-2 0-2.92-.94-3.45-.94-.34 0-.51.29-.66.75h-.41L266 39.5l.54-.07a4.13 4.13 0 004.17 3.84c1.6 0 2.93-.7 2.93-2.47z"/></svg>